<svg xmlns="http://www.w3.org/2000/svg" viewBox="0 0 1024 1024" aria-hidden="true">
  <path fill="#000" transform="translate(0 960) scale(1 -1)" d="M586.5 851.7c41.9 0 83.7 1.1 125.5-0.6 14.5-0.6 29.6-6.3 42.9-12.9 22.8-11.4 32.3-38.2 25.3-67.9-3-12.5-7.5-25-13.1-36.6-22.6-46.5-45.8-92.7-68.9-139-5.9-11.7-12.1-23.8-25.7-28-29-8.9-63.5 2.2-66.3 45.3-1.5 22.3-3.8 44.4-5.4 66.7-1 13.3-8.4 22.5-19.8 27.1-47.3 19-93.6 19.7-137.3-10.3-16-11-23.5-30.9-19-49.8 2.6-10.9 10.1-17.1 19.3-22.4 41.8-23.9 85.9-42.5 131.3-58.2 50.3-17.3 100.6-35 146.4-62.9 64.1-39.1 110.2-92.9 127-167 20-88.1-1.7-165.5-69.2-227.3-31.1-28.5-69.6-44.8-111-50.5-43.5-6-87.5-8.8-131.3-11.4-33.1-2-66.3-2.1-99.5-2-66.3 0.1-132.6 1.5-198.9 1.1-46.5-0.3-87.9 56.8-63.1 102.7 38.5 71.3 75.1 143.7 112.6 215.6 2.7 5.2 6 10.1 9.6 14.8 9.7 12.7 22.7 18.5 38.4 15.3 10.5-2.2 21.1-5.4 30.6-10.3 20-10.3 28.1-27.1 24.4-49.4s-8.8-44.3-12.5-66.5c-1.7-10-2-20.4-1.7-30.5 0.6-23.2 13.2-38.5 34.7-45.5 16.1-5.3 32.7-9.3 49.4-12.3 43.6-7.9 87.1-7.8 129.1 8.6 13.7 5.4 27.5 12.1 39 21.1 39.9 31.3 40 87.1 0.9 121.3-23.6 20.7-51.2 34.8-80.4 45.6-52.2 19.3-104.9 37.2-156.8 57.3-46.4 17.9-87 45-117.9 84.7-58.2 74.8-56.4 169.2 4.9 241.9 51.1 60.7 116.5 91.8 196 92.2 36.9 0.2 73.8 0 110.7 0-0.2-0.1-0.2-0.1-0.2 0z"/>
</svg>
