<svg xmlns="http://www.w3.org/2000/svg" viewBox="0 0 1024 1024" aria-hidden="true">
  <path fill="currentColor" transform="translate(0 960) scale(1 -1)" d="M517.4-4.9c-21.4 0.9-36.8 1-52.2 2.4-10.6 0.9-21 3.6-31.5 5.6-9.3 1.8-18.7 3.2-27.7 5.8-16.8 4.8-33.7 9.8-50.1 15.8-32.1 11.9-62.2 27.8-89.8 48-17.8 13-34.7 27.1-51.2 41.8-27.8 24.7-50.7 53.7-70.6 85-18.1 28.3-33.7 58-44 90.1-6.7 20.9-12.9 42-18.6 63.2-2.3 8.4-2.8 17.3-3.9 26-1.8 14.9-4.1 29.7-4.8 44.6-0.8 17 0.1 34 0.2 51 0 2.9 0 5.8 0.4 8.6 2.1 17.3 3.4 34.9 6.9 52 4.3 21 9.6 41.8 16.2 62.2 5.5 17.2 13 33.8 20.5 50.2 16 35.1 36.9 67.4 62 96.6 14.5 16.8 30 33 46.7 47.5 18.5 16 38.4 30.7 58.9 44.2 22 14.5 45.6 26.5 70.6 35.2 16.4 5.7 32.8 11.4 49.4 16.3 9.7 2.9 19.8 4.4 29.8 6.3 11.7 2.1 23.5 3.9 35.3 5.8 1.1 0.2 2.1 0.3 3.2 0.4 16.9 0.4 33.7 1.4 50.6 1.1 15.2-0.3 30.4-1.2 45.4-3.4 30.6-4.6 60.8-11.2 89.7-22.3 29-11.1 57-24.2 83.2-41.2 21.9-14.2 42.9-29.5 62-47.2 28.3-26.2 52.9-55.5 74-87.8 17.1-26.2 31.3-54 42.5-83.2 7-18.3 12.3-37.4 17.3-56.3 4-15 6.7-30.3 9.3-45.6 1.6-9.3 2.2-18.8 2.6-28.2 0.9-19.8 2.3-39.7 1.7-59.6-0.5-16-3.2-31.9-5.4-47.8-1.6-11.8-3.3-23.8-6.3-35.3-4.6-17.8-10.1-35.4-15.8-52.9-8.2-25.1-19.8-48.8-32.9-71.7-13.6-23.9-29-46.6-47.3-67.3-10.9-12.4-22-24.6-33.9-36-27.5-26.3-57.6-49.2-91.5-66.5-19.3-9.8-38.9-19.2-59-27.1-16.1-6.3-33-10.6-49.8-14.7-14-3.4-28.3-5.8-42.6-7.5-18.6-2.1-37-3.1-49.5-4.1zM687.7 191c-29.1 28.9-56.9 56.5-84.8 84.3-29 28.9-57.9 57.7-86.7 86.8-3.6 3.6-5.5 3.6-8.9 0-10.9-11.4-22.1-22.5-33.2-33.7-13.9-13.9-28-27.7-41.9-41.7-13.7-13.7-27.2-27.5-40.9-41.2-17-17-34-33.9-51.1-50.7-3-3-2.8-4.9 0.7-7.1 9.9-6.1 19.4-13 29.7-18.4 24.6-13 50.4-23 77.8-28.7 18.6-3.9 37.3-6.7 56.2-6.9 11.8-0.2 23.6 0.7 35.3 1.9 13.6 1.4 27.4 2.8 40.7 6 28.7 6.9 56 17.6 81.4 32.9 8.2 5.1 16.4 10.6 25.7 16.5zM337 705c13.9-13.8 27.5-27.3 41-40.9 21.4-21.4 42.8-43 64.2-64.4 21.8-21.8 43.7-43.5 65.4-65.5 3.3-3.3 5.1-3.6 8.6-0.2 55.4 55.6 110.9 111 166.4 166.5 1.3 1.3 2.5 2.8 3.8 4.2-93.2 73.6-245.9 79.4-349.4 0.3zM256.9 619.6c-0.1 0-0.6-0.2-0.9-0.6-0.7-0.8-1.4-1.7-1.9-2.6-17.6-28.4-30.1-58.9-38.2-91.3-5.2-20.8-8.8-42.1-8.9-63.6-0.1-21.2 0.9-42.7 3.8-63.7 2.4-17.6 7.5-34.9 12.7-52 6.8-22.4 17-43.3 29.1-63.4 4.4-7.3 4.8-7.2 10.8-1.3 54.1 54.1 108.2 108.2 162.3 162.3 1.4 1.4 2.7 2.8 3.5 3.7-57.7 57.8-114.9 115.1-172.3 172.5zM766.5 620.8c-2.3-2.1-3.6-3.2-4.8-4.4-42-42-84.1-84-126-126-12.8-12.8-25.4-25.8-38.3-38.6-2.7-2.7-2.4-4.8 0.1-7.2 3.6-3.5 7-7.2 10.6-10.7 23.9-23.8 47.8-47.6 71.6-71.4 24-24 47.8-48 71.8-72 4.8-4.8 9.7-9.4 15-14.6 31.5 47.6 47.4 99.8 50.3 155.3 3.5 67.6-13 131-50.3 189.6z"/>
</svg>
