<svg xmlns="http://www.w3.org/2000/svg" viewBox="0 0 1024 1024" aria-hidden="true">
  <path fill="currentColor" transform="translate(0 960) scale(1 -1)" d="M473.3 871.7c1.2-111.9 2.4-223.1 3.6-334.9 1.9-0.2 3.9-0.4 7-0.6 0.9 12.4 2.5 24.2 2.4 36-0.4 93.9-1.2 187.9-1.9 281.8-0.1 9.1 0 18.1 0 28 13.1 0 26 0 38.9 0 18.2 0 18.2 0 18.1-18.5-0.8-89.6-1.7-179.2-2.4-268.8-0.1-14.9 0.6-29.9 0.8-44.8 0.1-6.1 2.2-11.2 7.9-16.4 1.2 113.3 2.4 225.3 3.6 338.3 8.1-1.4 15.6-2.6 23.1-4.1 17.8-3.6 35.8-6.2 53.3-11.1 38.9-10.8 67-36.2 90.4-68.2 26.3-36 39.1-76.5 44.5-120.2 5-40.3 11.6-80.5 15.9-120.8 2.2-20.8 11.2-37.4 22.9-53.9 25.4-35.8 50.6-71.8 74.3-108.7 23.1-36 38.4-75.9 54-115.6 9.9-25.1 19.3-50.4 28.6-75.8 3.4-9.3 3-18.9-3.7-27-18.5-22.3-37.2-44.5-55.9-66.6-0.8-0.9-1.8-1.7-3.8-3.4-1.7 8.2-3.5 15.4-4.7 22.7-9 54.1-24.2 106.5-44.9 157.3-16.1 39.4-33 78.6-55.8 114.6-11.8 18.7-26.1 36.3-42 51.7-41.8 40.7-111.9 40.6-154.6 0.7-14.8-13.9-28.2-29.3-42.2-44-4.2-4.4-8.2-8.9-12.4-13.2-16.8-16.9-35.4-16.8-52.1 0.5-17.4 18.1-34.8 36.2-52 54.5-23.8 25.4-53.5 33.7-87.2 31-42.5-3.3-72.7-26.2-97.5-59.3-21.2-28.3-36.7-59.5-50.7-91.7-17.9-41.2-35.4-82.7-46.9-126.1-7.8-29.2-13-59-19.4-88.6-0.5-2.5-1.1-4.9-1.9-8.7-8.9 9.9-17.1 19-25.1 28.2-11.3 12.8-22.1 26.2-34 38.4-8.3 8.5-9.4 17.3-5.5 27.8 13.8 36.6 26.6 73.6 41.6 109.7 24.9 59.8 57.6 115.2 97.9 166 29.2 36.8 44.5 78.4 48 125.2 3.1 41.8 7.3 83.7 18.3 124.3 14.9 55.1 48.2 97 96.1 127.5 18.6 11.8 39.8 16.4 61.2 20 14.2 2.4 28.6 4.5 44.2 6.8zM463.1 485.7c-9 11.2-19.8 19.7-32.3 25.8-34.6 17-70.1 16.6-106 5.2-28.4-9.1-53-24.8-74.2-45.8 1.7 0.2 3.2 0.8 4.7 1.5 16 7.6 32 15.2 48 22.9 19.1 9.2 39.1 14.8 60.4 15.5 27.4 1 53.1-5.6 78.1-16.2 7.1-3 14.2-5.9 21.3-8.9zM567.2 486.7c4.3 2.2 8.6 4.4 13 6.5 28.3 13.4 57.9 19.6 89.3 16.3 32.2-3.4 61.4-15.3 89.1-31.5 4.1-2.4 8.2-4.8 12.3-7.3-4.9 6.4-10.4 11.9-16.4 16.7-26.8 21.4-57.8 32.5-91.6 35.6-24.2 2.2-48-0.1-70-11.6-11-5.6-20-13.2-25.7-24.7zM712 243.5c-17.9-44.1-35.7-87.9-53.8-132.4-10.2 9.8-19.9 18.9-29.4 28.2-26.2 25.7-52.4 51.4-78.6 77.1-7.1 7-10.6 15.3-11.3 25.3-1.2 17-12 26.6-28.5 26-12.7-0.4-23.3-9.3-24.3-23.4-0.9-13.6-6.8-23.1-16.3-32.3-33.8-32.9-67-66.5-100.4-99.8-0.6-0.6-1.3-1.1-2.7-2.2-18.2 44.8-36.2 89.3-54.2 133.6-6.1 0.1-5.1-3.1-4-6.8 10.9-37.3 21.6-74.6 32.4-111.9 3.3-11.4 6.6-22.8 10-34.6 7.3 2.4 14.7 6.6 20.7 0-7.4-1.7-15.2-3.5-23-5.4-5.5-1.4-8.1 1.7-9.6 6.2-4.4 13.8-8.9 27.5-13 41.4-5.1 17.6-10.4 21.5-29 22.3-46.1 2-90.5-5.6-133.2-22.9-4-1.6-8.1-2.9-13.2-4.7 1 5.3 1.4 10 2.6 14.4 14.2 53.7 30.7 106.8 52.3 158 13.8 32.6 27.5 65.5 48.2 94.5 17.7 24.7 37.8 46.9 66.1 59.8 8.1 3.7 16.8 6 25.2 9 0.3-0.6 0.6-1.1 0.9-1.7-8.3-12.3-16.6-24.6-24.8-37-2.3-3.4-4.4-7-6.3-10.6-4.6-8.6-3.3-14.4 5.5-18.8 37.7-18.8 76.7-32.9 119.8-31 8.1 0.4 16.1 1.4 24.7 2.2-1.6 10.4-3 19.3-4.3 28.1 15.2-14.2 28.8-30.2 51.9-30.1 22.8 0.2 36.3 15.9 51.6 32.1-1.8-11.5-3.3-21-4.9-30.7 36.6-2 72.3-2.3 106.4 12.4 11.5 5 23.1 9.5 34.6 14.4 12.3 5.3 14.9 13.5 7.5 24.8-8.5 13-17.2 25.9-25.9 38.8-1.1 1.7-2.2 3.5-3.8 6.3 20.4-3.7 37.3-12 52.2-24.1 26.7-21.6 46-49.3 61.8-79.3 22.1-42 38.6-86.4 53.2-131.5 9.6-29.6 17.6-59.7 26.2-89.6 0.8-2.9 1.2-5.9 2-10.1-5.8 2-10.8 3.7-15.7 5.5-40.1 15.4-81.4 23.4-124.4 21.4-5.8-0.3-11.7-0.7-17.5-1.4-7.5-0.9-12.6-4.8-14.9-12.4-4.5-15.1-9.3-30.1-14-45.2-3.4-11.1-5.2-11.9-16.2-9.8-6.5 1.3-13.1 1.8-19.7 2.6-0.1 0.8-0.1 1.5-0.2 2.3 3.9 0.5 7.9 1.4 11.8 1.5 11.3 0 11.4-0.1 14.5 10.7 12.9 44.5 25.8 89.1 38.8 133.7 1.3 3.7 2.5 6.9-3.8 7.1zM555.5 282.3c14.2-7.3 27.1-13.4 39.4-20.4 12.8-7.2 22.1-17.8 27.3-31.8 6.2-16.8 12.8-33.5 19.2-50.2 3.7-9.7 7.2-19.5 10.8-29.2 0.6 0.2 1.2 0.3 1.9 0.5-3.7 21.2-6.4 42.7-11.4 63.6-7.1 29.6-23.5 52.7-51.8 66.1-1.1 0.5-2 1.2-3 1.8 0 0.6 0 1.2 0 1.8 9.1 1.3 18.1 3 27.3 3.8 16 1.4 31.2-3.3 46.6-7 9.1-2.2 17.7-0.8 24.7 6.2 6.7 6.7 13.2 13.8 19.8 20.6 2.7 2.7 2.8 5-0.6 7.5-7.5-5.7-15.2-11.3-22.7-17.1-5.4-4.2-11.1-5.6-17.6-3.3-32.1 11.2-63.5 7.3-94.6-4-5.3-1.9-9.7-5.5-15.3-8.9zM468.8 281.6c0 0.8 0.1 1.5 0.1 2.3-7.8 3.6-15.3 8-23.4 10.7-27.4 9.4-55.2 9.7-82.9 1.4-8.9-2.7-16.2-1.9-23.4 4.4-6.5 5.7-13.8 10.4-20.8 15.4-1.2 0.9-2.6 1.4-3.8 2.2-0.4-0.5-0.8-0.9-1.2-1.4 7.2-8.5 14-17.5 21.8-25.5 10.9-11.1 24.4-13.7 38.8-8.2 11.8 4.5 24 5.8 36.3 5.2 8.8-0.5 17.5-2.7 26.3-4.2 0-0.7 0.1-1.3 0.1-2-21.9-12.8-38.7-30.3-49.9-53.1-11.4-23.4-15.3-52.8-9.8-70 8 22.9 15.9 46.8 24.7 70.4 6.8 18.4 19.7 31.1 37.9 38.7 10 4 19.5 9 29.2 13.7zM708.5 373.4c-10.3-7.6-20.7-17-32.6-23.7-24.5-13.7-51.5-12.6-78.4-10-10.8 1-21.6 2.3-32.4 3.5 24.8-21.4 53.5-25.3 83.8-18.1 27.8 6.6 49.7 21.4 59.6 48.3zM314.1 378.4c12.7-33.9 38.2-48.9 70.5-54.6 29.2-5.2 62.8 4.8 75.6 19.6-1.3-0.1-2.4-0.1-3.4-0.2-23.5-1.4-47-3.9-70.5-3.9-22.1 0-41.8 8.5-57.9 24.1-4.6 4.5-8.9 9.3-14.3 15zM544.5 337.9c-21.1 20.1-51.7 19.7-61.2 0 20 0 40 0 61.2 0zM491.8 321.7c14.6 0 29 0 43.7 0-12 16.1-36.4 16-43.7 0zM617.5 64.4c-13.4-6.8-25.8-12.8-37.9-19.4-11.5-6.3-22.9-13.1-34-20.1-19.7-12.4-40.1-14.8-60.9-3.7-26.5 14.1-52.5 29-78.4 43.3 69.5-0.1 139.7-0.1 211.2-0.1zM391.3 88.1c79.7 0 159 0 238.2 0 0.9-7.6-1.1-10.2-8.2-10.8-3-0.3-6-0.2-9.1-0.2-67.7 0-135.3-0.1-203-0.1-3.2 0-6.5-0.1-9.7 0.2-6.8 0.5-8.5 2.7-8.2 10.9zM523.9 153.9c0-14.3 0.1-28.6 0-42.9 0-7.7-1.5-9-9.3-8.7-2.4 0.1-5.1-0.5-7 0.5-2.5 1.3-4.9 3.5-6.5 5.8-1 1.6-0.6 4.2-0.6 6.4-0.1 27.1-0.2 54.1-0.3 81.2 0 7.1 1.8 8.9 8.7 9 0.9 0 1.7 0 2.6 0 11.9-0.2 12.3-0.6 12.4-12.4 0-13 0-26 0-39-0.1 0.1-0.1 0.1 0 0.1zM479.4 194.3c0.2-2 0.5-4 0.5-5.9 0-25.7 0-51.4-0.2-77.1 0-2.7-1.1-7.6-2.4-7.8-4.5-0.9-9.3-0.5-14 0-0.8 0.1-2 2.8-2 4.4 0 19 0.2 38 0.5 57 0.3 12.6 9.4 20.4 17.6 29.4zM545.1 192.4c11.2-7.9 18.2-16.9 18.4-29.5 0.3-17.9-0.2-35.8-0.3-53.7 0-9.8-7.4-5.9-12.2-6.7-5.3-0.9-6 2.5-6 6.7 0.1 27.2 0.1 54.4 0.1 83.2zM437.7 153.8c0-15.4 0.2-30.2-0.3-45-0.1-2.1-3.8-5.5-6.1-5.7-4.3-0.4-8.9 0.5-10.9 5.9-6.1 16.5 0.8 35.2 17.3 44.8zM587 154.7c14.5-7.4 17.7-19.8 17.6-33.8 0-3.4-0.8-6.9-0.6-10.3 0.3-6.1-4.5-7.9-8.3-7.4-3.1 0.4-8.1 4.3-8.2 6.8-0.9 14.5-0.5 29.2-0.5 44.7z"/>
</svg>
