<svg xmlns="http://www.w3.org/2000/svg" width="512" height="512" viewBox="0 0 512 512">
  <defs>
    <clipPath id="idth-circle"><circle cx="256" cy="256" r="256"/></clipPath>
    <clipPath id="idth-id"><polygon points="0,0 512,0 0,512"/></clipPath>
    <clipPath id="idth-th"><polygon points="512,0 512,512 0,512"/></clipPath>
  </defs>
  <g clip-path="url(#idth-circle)">
    <g clip-path="url(#idth-id)">
      <path fill="#eee" d="m0 256 249.6-41.3L512 256v256H0z"/>
      <path fill="#d80027" d="M0 0h512v256H0z"/>
    </g>
    <g clip-path="url(#idth-th)">
      <path fill="#d80027" d="M0 0h512v89l-79.2 163.7L512 423v89H0v-89l82.7-169.6L0 89z"/>
      <path fill="#eee" d="M0 89h512v78l-42.6 91.2L512 345v78H0v-78l40-92.5L0 167z"/>
      <path fill="#0052b4" d="M0 167h512v178H0z"/>
    </g>
  </g>
</svg>
